<svg width="1240" height="3000" viewBox="0 0 1240 3000" fill="none" xmlns="http://www.w3.org/2000/svg">
<rect width="1240" height="3000" fill="#F5F3E4"/>
<path d="M348 645C348 654.99 341.176 662 334 662C326.824 662 320 654.99 320 645C320 635.01 326.824 628 334 628C341.176 628 348 635.01 348 645Z" fill="black" stroke="black" stroke-width="8"/>
<path d="M915 650C915 660.028 907.079 668 897.5 668C887.921 668 880 660.028 880 650C880 639.972 887.921 632 897.5 632C907.079 632 915 639.972 915 650Z" fill="black" stroke="black" stroke-width="8"/>
<path d="M951 710V1623.48C951 1627 946.011 1627.71 945.034 1624.32C944.972 1624.11 944.887 1623.9 944.779 1623.71L930.12 1596.94C929.23 1595.32 928.193 1593.78 927.02 1592.35L913.635 1576L895.962 1554L876.27 1534.5L854.557 1517L835.37 1503.5L813.658 1491.5L789.421 1478.5L766.699 1467.5L742.462 1459.5L722.769 1453.5L700.552 1448L676.82 1444L651.573 1439.5L629.861 1436.5H543.012H527.359L503.627 1439.5L479.895 1444L449.599 1451L423.342 1458L401.63 1466L366.79 1478.5L336.494 1493.5L315.286 1504L301.653 1511L286 1519L286.505 682.5V682.421C286.505 682.174 286.532 681.929 286.584 681.691C286.676 681.271 286.847 680.872 287.088 680.515C287.012 680.277 287.182 680 287.466 680H287.515H921C937.568 680 951 693.431 951 710Z" fill="black"/>
<path d="M287.515 680H287.466C287.113 680 286.937 680.428 287.188 680.676V680.676C287.36 680.847 287.34 681.13 287.145 681.274L286.577 681.696C286.529 681.732 286.478 681.763 286.424 681.79L286 682M287.515 680H921C937.568 680 951 693.431 951 710V1623.48C951 1627 946.011 1627.71 945.034 1624.32V1624.32C944.972 1624.11 944.887 1623.9 944.779 1623.71L930.12 1596.94C929.23 1595.32 928.193 1593.78 927.02 1592.35L913.635 1576L895.962 1554L876.27 1534.5L854.557 1517L835.37 1503.5L813.658 1491.5L789.421 1478.5L766.699 1467.5L742.462 1459.5L722.769 1453.5L700.552 1448L676.82 1444L651.573 1439.5L629.861 1436.5H543.012H527.359L503.627 1439.5L479.895 1444L449.599 1451L423.342 1458L401.63 1466L366.79 1478.5L336.494 1493.5L315.286 1504L301.653 1511L286 1519L286.505 682.5V682.421C286.505 681.512 286.869 680.64 287.515 680V680Z" stroke="black" stroke-width="3"/>
<rect x="921" y="679" width="30" height="22" fill="black"/>
<path d="M351.681 898.489L360.362 890.984C360.454 890.904 360.552 890.831 360.654 890.766L361.351 890.322C361.747 890.07 362.253 890.07 362.649 890.322C363.142 890.636 363.339 891.257 363.118 891.798L359 901.854L351.5 921.922L348.929 927.381C347.65 930.097 346.786 932.989 346.366 935.961L344.5 949.157V962.231C344.5 965.595 345.066 968.935 346.174 972.112L348.64 979.181C348.879 979.868 349.188 980.529 349.561 981.153C350.505 982.73 351.837 984.039 353.432 984.953L354.432 985.526C355.471 986.122 356.597 986.552 357.768 986.801L359.344 987.136C360.104 987.297 360.891 987.274 361.64 987.07C363.125 986.664 364.331 985.581 364.894 984.148L365.311 983.085C365.437 982.764 365.586 982.453 365.757 982.153L370.17 974.421C371.055 972.871 372.076 971.403 373.222 970.035L377.5 964.924L382.644 957.984C384.862 954.992 386.503 951.613 387.484 948.02L387.941 946.347C388.644 943.772 389 941.115 389 938.446V928.611V908.568C389 906.329 388.749 904.096 388.253 901.913L384.595 885.834C384.199 884.094 383.649 882.393 382.951 880.752L378.774 870.927C377.927 868.935 377.298 866.856 376.899 864.728L374.516 852.04C374.173 850.214 374 848.36 374 846.502V830.228C374 827.975 374.254 825.73 374.756 823.534L377.5 811.548L382.027 798.571C382.674 796.715 383.502 794.928 384.499 793.234L390.273 783.426C391.421 781.475 392.785 779.661 394.341 778.018L399.526 772.542C400.839 771.155 402.282 769.897 403.834 768.784L413.5 761.856L425.721 754.608C427.237 753.708 428.83 752.944 430.481 752.324L442 748L432.5 760.423L419.5 780.491L412.72 793.449C411.908 795.001 411.234 796.62 410.705 798.289L407.903 807.123C406.973 810.056 406.5 813.114 406.5 816.191V824.361C406.5 827.271 406.924 830.166 407.757 832.954L410.557 842.32C411.184 844.415 412.038 846.436 413.104 848.346L419.5 859.807L426.355 870.288C428.433 873.465 429.889 877.007 430.646 880.727L432.398 889.337C432.798 891.306 433 893.31 433 895.319V913.321L429.937 936.317C429.647 938.499 429.117 940.642 428.358 942.709C426.061 948.961 422.838 957.743 422.5 958.713C422.332 959.194 421.335 960.086 420.05 961.076C416.528 963.791 413.273 966.878 410.908 970.645L410 972.091L404.418 982.76C403.155 985.173 401.37 987.274 399.192 988.91L398.482 989.442C396.525 990.912 394.233 991.873 391.813 992.238C388.08 992.801 384.273 991.914 381.173 989.76L380.5 989.292L375.698 986.539C375.566 986.464 375.428 986.4 375.285 986.349C373.517 985.715 371.686 987.126 371.849 988.998L372.5 996.46V1000.29C372.5 1004.1 370.38 1007.6 367 1009.36L365.032 1010.3C361.957 1011.77 360 1014.87 360 1018.28C360 1018.7 360.03 1019.13 360.091 1019.54L361.587 1029.91C361.862 1031.81 362.319 1033.69 362.953 1035.5L367 1047.11L379.5 1071.95L390 1091.54L400.5 1114L384.5 1103.01L372 1092.98L360 1081.51L347.053 1067.43C346.019 1066.31 345.073 1065.1 344.222 1063.84L334.589 1049.48C333.532 1047.9 332.627 1046.23 331.886 1044.48L325.5 1029.43L320.631 1012.93C320.211 1011.51 319.897 1010.06 319.692 1008.59L317.416 992.275C317.139 990.292 317.062 988.285 317.185 986.286L318.328 967.716C318.442 965.859 318.729 964.016 319.185 962.212L322 951.068L326.998 934.749C327.664 932.575 328.575 930.484 329.713 928.516L337.101 915.74C338.032 914.131 339.11 912.612 340.321 911.202L348.552 901.627C349.516 900.506 350.562 899.457 351.681 898.489Z" fill="#9C8A7A"/>
<path d="M419.178 1269.67L408.5 1242L404 1232.5L400.5 1222L398 1212L396 1198L395 1181.5V1139L397 1124.5L401.5 1108.5L408 1089.5L415.5 1070.5L422 1055.5L432 1038L442 1022.5L457.5 997L466.5 981.5L478.5 959L484.5 949L494.116 932.653C494.372 932.218 494.594 931.765 494.781 931.297L502.5 912L505.63 905.74C505.876 905.248 506.081 904.735 506.243 904.209L507.742 899.339C507.913 898.783 508 898.202 508 897.62C508 895.677 507.029 893.852 505.412 892.774C505.138 892.592 504.849 892.433 504.548 892.299L500.5 890.5L492 887L483.259 883.78C482.754 883.594 482.264 883.367 481.796 883.102L471 877L464.117 871.952C463.706 871.651 463.319 871.319 462.959 870.959L458.451 866.451C457.494 865.494 456.741 864.352 456.238 863.094L453.715 856.788C453.243 855.607 453 854.346 453 853.074V840.99C453 840.332 453.065 839.675 453.194 839.029L454.667 831.665C454.887 830.563 455.292 829.506 455.864 828.538L461.065 819.737C461.354 819.247 461.685 818.782 462.054 818.348L469.199 809.942C469.731 809.316 470.338 808.759 471.006 808.281L480.5 801.5L490.727 795.457C491.241 795.153 491.782 794.896 492.342 794.688L504.226 790.287C504.741 790.096 505.271 789.948 505.811 789.844L517.064 787.68C517.687 787.56 518.319 787.5 518.953 787.5H540.902C541.632 787.5 542.359 787.42 543.072 787.262L550.023 785.717C550.673 785.573 551.306 785.364 551.915 785.093L559.118 781.892C559.705 781.631 560.265 781.315 560.791 780.946L570 774.5L579.5 767L590 759L597 752L599.232 749.768C600.364 748.636 601.899 748 603.5 748C605.101 748 606.636 748.636 607.768 749.768L607.796 749.796C608.262 750.262 608.65 750.801 608.945 751.39L609.111 751.722C609.696 752.891 610 754.181 610 755.488V755.811C610 757.253 609.682 758.676 609.068 759.98L606 766.5L601 776.5L593.125 789.47C592.71 790.154 592.214 790.786 591.648 791.352L584.37 798.63C583.792 799.208 583.145 799.713 582.444 800.133L576 804L564.148 813.007C563.717 813.335 563.313 813.698 562.94 814.091L554.5 823L552.439 825.355C551.511 826.416 551 827.777 551 829.185C551 829.726 551.075 830.264 551.224 830.783L551.59 832.066C551.862 833.017 552.273 833.922 552.81 834.752L556.924 841.111C557.307 841.702 557.751 842.251 558.249 842.749L561.5 846L565.847 851.651C566.281 852.216 566.654 852.824 566.958 853.468L570.609 861.175C570.867 861.718 571 862.312 571 862.913V866.848C571 868.409 569.26 869.34 567.961 868.474C567.13 867.92 566.015 868.082 565.376 868.849L564 870.5L557.5 879.5L549.897 893.756C549.633 894.251 549.411 894.768 549.233 895.3L545.5 906.5L542.217 919.632C542.073 920.21 541.98 920.799 541.941 921.392L541 935.5V954.5L539 977V989V1031.79C539 1032.26 539.034 1032.74 539.101 1033.2L540.5 1043L543 1061.5L544 1126.5V1142.5L545.916 1158.79C545.972 1159.26 546.062 1159.73 546.185 1160.19L550 1174.5L552.198 1181.97C552.399 1182.66 552.672 1183.32 553.013 1183.94L558.5 1194L565 1204.5L573 1215L583.458 1225.93C583.819 1226.31 584.209 1226.66 584.624 1226.98L594.5 1234.5L606 1242L616 1247L630 1253L638.03 1255.54C639.004 1255.84 640.02 1256 641.041 1256H657H681L694.182 1254.59C694.726 1254.53 695.265 1254.43 695.793 1254.28L704 1252L714.5 1249L729.5 1242.5L742.288 1237.29C742.762 1237.1 743.221 1236.87 743.66 1236.6L755.5 1229.5L767 1222L781 1212L793 1203L805 1192.5L818.5 1180.5L829.5 1168.5L840.5 1155L852.5 1138.5L861.5 1123L867.071 1110.93C867.356 1110.31 867.578 1109.67 867.732 1109L872.5 1088.5L874.352 1077.85C874.451 1077.28 874.5 1076.71 874.5 1076.14V1049.68C874.5 1048.9 874.407 1048.11 874.224 1047.35L871.707 1036.86C871.569 1036.29 871.381 1035.73 871.145 1035.19L868 1028L863 1018.5L876 1027L886.547 1040.9C886.849 1041.3 887.12 1041.72 887.359 1042.16L895.347 1056.8C895.78 1057.6 896.104 1058.45 896.309 1059.33L902.5 1086L904.5 1107V1137.33C904.5 1138.11 904.41 1138.88 904.232 1139.63L898.217 1165.08C898.073 1165.69 897.871 1166.29 897.616 1166.86L885.5 1194L860 1237L837.5 1263.5L803.523 1297.48C803.175 1297.83 802.802 1298.15 802.406 1298.44L761.174 1329C760.725 1329.33 760.25 1329.63 759.753 1329.88L703.164 1358.66C702.722 1358.89 702.264 1359.08 701.793 1359.24L668.893 1370.2C668.299 1370.4 667.688 1370.54 667.067 1370.63L623.5 1376.5H583.711C583.237 1376.5 582.765 1376.47 582.296 1376.4L558.5 1373L535.259 1366.71C534.754 1366.57 534.26 1366.39 533.783 1366.18L505.5 1353.5L476.5 1336L460.162 1323.03C459.722 1322.68 459.311 1322.29 458.935 1321.87L434.116 1294.19C433.706 1293.73 433.339 1293.24 433.02 1292.71L419.965 1271.26C419.656 1270.76 419.392 1270.22 419.178 1269.67Z" fill="#9C8A7A"/>
<ellipse cx="519" cy="820.5" rx="14" ry="13.5" fill="black"/>
<path d="M613.005 948.873L620.696 938.899L624.366 934.495C625.104 933.609 625.957 932.826 626.901 932.165L627.553 931.709C629.315 930.475 631.415 929.814 633.566 929.814C634.231 929.814 634.894 929.877 635.546 930.002L645.074 931.834C646.355 932.081 647.657 932.205 648.961 932.205H650.619C654.749 932.205 658.725 930.643 661.752 927.834C663.068 926.612 664.174 925.182 665.025 923.601L667.501 919.005C669.449 915.388 670.923 911.535 671.887 907.542L672.178 906.337C673.244 901.922 673.783 897.395 673.783 892.853V889.57C673.783 883.267 673.082 876.984 671.693 870.836L670.435 865.264L665.174 849.007L660.87 829.403L660.205 821.427C659.692 815.279 659.692 809.1 660.205 802.952L660.27 802.164C660.669 797.378 661.412 792.628 662.492 787.949L663.059 785.491C664.464 779.404 666.586 773.505 669.38 767.918C672.304 762.072 675.942 756.612 680.21 751.661L681.031 750.709C684.165 747.075 687.586 743.7 691.263 740.617L700.565 732.817L713 723.733L725.435 716.082L745.522 706.519L762.261 700.781L779.957 697.913L798.13 696L779.957 706.519L773.882 710.787C766.149 716.22 758.901 722.311 752.217 728.992L748.587 733.41C743.74 739.309 740.332 746.255 738.63 753.697C737.807 757.298 737.391 760.98 737.391 764.673V769.158C737.391 777.719 738.627 786.235 741.059 794.443L741.217 794.976C744.082 804.522 747.763 813.802 752.221 822.715L755.565 829.403L769.065 850.226C771.221 853.552 773.105 857.046 774.699 860.676C778.797 870.008 780.913 880.09 780.913 890.282V899.525C780.913 906.604 779.8 913.639 777.616 920.373C775.993 925.375 773.793 930.17 771.058 934.661L761.783 949.896L746.957 972.847L740.717 982.444C736.596 988.783 733.081 995.495 730.217 1002.49L729.043 1005.23C727.925 1007.84 727.348 1010.65 727.348 1013.49C727.348 1016.33 727.925 1019.14 729.043 1021.75L730.217 1024.49L730.666 1025.29C731.865 1027.45 734.139 1028.79 736.608 1028.79C737.442 1028.79 738.269 1028.64 739.047 1028.34L740.545 1027.76C742.872 1026.87 744.947 1025.42 746.594 1023.55L754.609 1014.45L763.696 1004.88L775.174 989.104L780.282 981.727C782.611 978.364 785.238 975.217 788.131 972.325C790.966 969.491 793.545 966.412 795.839 963.125L799.578 957.767C804.343 950.939 808.499 943.706 811.997 936.151L813.907 932.027C817.09 925.153 819.508 917.951 821.117 910.549C822.687 903.331 823.478 895.965 823.478 888.579V880.899C823.478 871.765 822.762 862.644 821.338 853.622L820.609 849.007L815.348 832.272L807.696 812.19L832.087 832.272L843.087 847.094L849.005 858.051C853.658 866.665 857.48 875.703 860.421 885.041L861.014 886.926C863.088 893.512 864.633 900.254 865.633 907.087C866.543 913.305 867 919.58 867 925.864V928.715C867 941.203 865.614 953.653 862.868 965.835L859.348 981.454L854.948 997.29C853.111 1003.9 850.209 1010.17 846.355 1015.85C844.181 1019.05 842.306 1022.45 840.754 1025.99L829.696 1051.26L807.217 1097.17L781.87 1142.11L759.87 1174.15L726.87 1210.96L705.348 1229.61L677.13 1243L693.391 1221.48L711.087 1198.53L715.758 1190.83C719.013 1185.46 721.753 1179.79 723.94 1173.9C725.89 1168.66 727.404 1163.2 728.444 1157.7C729.616 1151.51 730.217 1145.16 730.217 1138.86V1106.49C730.217 1103.16 729.725 1099.85 728.755 1096.67C727.51 1092.57 725.497 1088.76 722.824 1085.42L719.217 1080.91L712.105 1071.72C709.199 1067.97 706.581 1064 704.275 1059.85C701.806 1055.41 699.681 1050.71 697.963 1045.93C695.266 1038.42 693.487 1030.51 692.73 1022.56L691.957 1014.45V995.348C691.957 995.012 691.996 994.676 692.073 994.349C693.125 989.91 687.487 987.069 684.544 990.555L683.582 991.695C683.426 991.88 683.285 992.077 683.159 992.283L668.522 1016.36L661.731 1029.94C657.705 1037.99 655.609 1046.86 655.609 1055.86C655.609 1059.17 655.891 1062.46 656.452 1065.72L658 1074.69L659.429 1099.7C659.75 1105.32 659.329 1110.95 658.176 1116.46C656.481 1124.56 653.231 1132.25 648.606 1139.11L645.677 1143.46C642.422 1148.29 638.709 1152.79 634.59 1156.91L623.028 1168.47C621.476 1170.02 619.781 1171.42 617.963 1172.65L605.78 1180.88C604.039 1182.05 601.832 1182.3 599.875 1181.53C595.926 1179.99 594.55 1175.09 597.115 1171.72L611.609 1152.63L617.005 1145.08C621.319 1139.04 624.168 1132.08 625.326 1124.75C626.061 1120.09 626.104 1115.35 625.452 1110.68L624.83 1106.23C623.99 1100.21 622.448 1094.3 620.237 1088.64L615.913 1077.56L607.973 1061.39C604.664 1054.65 601.954 1047.64 599.876 1040.42L599.466 1039C596.417 1028.42 594.87 1017.47 594.87 1006.45V1002.1C594.87 993.796 596.055 985.539 598.39 977.574C601.437 967.182 606.393 957.449 613.005 948.873Z" fill="#9C8A7A" stroke="black"/>
<circle cx="399" cy="1578" r="57" fill="black"/>
<circle cx="769" cy="2004" r="57" fill="black"/>
<circle cx="505" cy="1878" r="154.5" stroke="black" stroke-width="57"/>
<circle cx="504.5" cy="1877.5" r="65.5" stroke="black" stroke-width="24"/>
<path d="M532 1880.5C532 1893.59 521.594 1904 509 1904C496.406 1904 486 1893.59 486 1880.5C486 1867.41 496.406 1857 509 1857C521.594 1857 532 1867.41 532 1880.5Z" stroke="black" stroke-width="14"/>
<path d="M519.5 1879C519.5 1883.07 515.555 1886.5 510.5 1886.5C505.445 1886.5 501.5 1883.07 501.5 1879C501.5 1874.93 505.445 1871.5 510.5 1871.5C515.555 1871.5 519.5 1874.93 519.5 1879Z" fill="black" stroke="black"/>
<path d="M467.5 2333.5C467.5 2338.94 462.213 2343.5 455.5 2343.5C448.787 2343.5 443.5 2338.94 443.5 2333.5C443.5 2328.06 448.787 2323.5 455.5 2323.5C462.213 2323.5 467.5 2328.06 467.5 2333.5Z" fill="black" stroke="black"/>
<circle cx="455.5" cy="2333.5" r="123" stroke="black" stroke-width="57"/>
<circle cx="455.5" cy="2333.5" r="42.5" stroke="black" stroke-width="30"/>
<path d="M710.566 1806.75L718.436 1831.37C719.19 1833.73 719.768 1836.14 720.165 1838.58L721.758 1848.4C722.188 1851.05 722.403 1853.73 722.403 1856.41V1863.98C722.403 1870.35 721.188 1876.66 718.822 1882.57L716.734 1887.78C713.936 1893.38 718.563 1899.81 724.757 1898.94L740.355 1896.75L755.945 1892.98L780.038 1884.48L795.628 1878.34L813.673 1869.52C816.439 1868.16 819.074 1866.56 821.545 1864.72L838.145 1852.38L853.234 1839.87C856.079 1837.52 858.653 1834.85 860.91 1831.93L870.269 1819.81L879.493 1803.95C881.213 1801 882.625 1797.87 883.707 1794.63L888.552 1780.11C889.9 1776.06 890.726 1771.86 891.01 1767.61L891.733 1756.78C891.911 1754.11 891.875 1751.44 891.625 1748.78L889.83 1729.65C889.389 1724.95 888.285 1720.33 886.552 1715.95L882.079 1704.62L874.523 1689.18C872.64 1685.33 870.269 1681.74 867.469 1678.49L859.876 1669.69L845.231 1652.7L831.531 1641.37L842.869 1668.28L851.372 1691.88L856.242 1707.97C857.088 1710.77 857.688 1713.64 858.033 1716.54L859.273 1726.94C859.674 1730.31 859.732 1733.71 859.445 1737.08L858.052 1753.51C857.695 1757.72 856.804 1761.87 855.4 1765.87L852.808 1773.24C851.853 1775.95 850.664 1778.58 849.256 1781.1L840.343 1797C838.88 1799.61 837.187 1802.08 835.282 1804.39L822.555 1819.81L821.378 1821.15C818.073 1824.92 812.044 1821.1 814.052 1816.5L821.138 1796.68L825.249 1779.22C826.283 1774.83 826.718 1770.32 826.542 1765.81L825.558 1740.57C825.446 1737.7 825.087 1734.84 824.484 1732.03L821.138 1716.43L819.209 1695.22C818.921 1692.06 818.935 1688.87 819.251 1685.71L821.138 1666.86L826.334 1644.2L810.221 1670.9C808.997 1672.92 807.919 1675.03 806.994 1677.21L796.572 1701.79L788.737 1716.58C788.295 1717.41 787.711 1718.17 787.012 1718.8L784.71 1720.89C783.602 1721.9 781.99 1722.12 780.652 1721.45C779.667 1720.96 778.959 1720.05 778.728 1718.97L777.932 1715.26C777.762 1714.47 777.676 1713.66 777.676 1712.84V1709.91C777.676 1706.4 778.148 1702.91 779.079 1699.52L782.872 1685.74L790.431 1664.5L791.952 1657.85C793.442 1651.33 793.611 1644.59 792.449 1638L792.361 1637.51C791.706 1633.8 790.635 1630.18 789.166 1626.71L786.179 1619.65L777.676 1602.19L774.711 1593.07C772.615 1586.63 771.851 1579.83 772.465 1573.08L772.542 1572.23C772.815 1569.24 773.357 1566.27 774.163 1563.37L776.381 1555.39C777.242 1552.29 778.4 1549.29 779.84 1546.41L786.179 1533.74L798.934 1520.05L815.469 1506.83L771.534 1522.41L746.642 1542.83C742.17 1546.5 738.368 1550.91 735.406 1555.88L731.644 1562.19C728.349 1567.72 726.152 1573.83 725.173 1580.19L723.93 1588.26C723.231 1592.8 723.161 1597.42 723.723 1601.98L725.794 1618.8C726.365 1623.44 727.585 1627.97 729.416 1632.27L734.588 1644.42C735.596 1646.78 736.358 1649.25 736.863 1651.77L738.314 1659.02C739.319 1664.04 738.311 1669.26 735.505 1673.55L735.276 1673.9C733.056 1677.29 729.773 1679.85 725.941 1681.18C721.828 1682.6 717.343 1682.51 713.289 1680.93L712.947 1680.79C710.156 1679.7 707.658 1677.98 705.65 1675.75L694.384 1663.28C692.282 1660.95 690.404 1658.43 688.774 1655.75L681.16 1643.23C678.129 1638.25 675.994 1632.78 674.85 1627.06L672.355 1614.6C671.708 1611.37 671.383 1608.08 671.383 1604.79V1578.68C671.383 1573.3 672.25 1567.96 673.952 1562.86L682.721 1536.57L696.421 1504L671.383 1525.71L643.49 1561.67C640.372 1565.68 637.886 1570.15 636.117 1574.92L625.12 1604.56C623.842 1608 622.947 1611.58 622.452 1615.22L619.084 1640C618.366 1645.28 618.498 1650.65 619.476 1655.89L625.432 1687.84C626.454 1693.33 628.387 1698.6 631.15 1703.45L645.937 1729.38C648.709 1734.24 652.277 1738.6 656.492 1742.28L685.527 1767.63C689.304 1770.92 692.563 1774.77 695.196 1779.04L705.49 1795.72C707.625 1799.18 709.329 1802.88 710.566 1806.75Z" fill="black" stroke="black"/>
<circle cx="683.5" cy="2222.5" r="40.5" fill="black"/>
<circle cx="815.5" cy="2269.5" r="46.5" fill="black"/>
<circle cx="677.5" cy="2344.5" r="46.5" fill="black"/>
<ellipse cx="621" cy="2450.5" rx="28" ry="24.5" fill="black"/>
<path d="M795 2459L928 2332V2459H795Z" fill="black" stroke="black"/>
<path d="M712 2535L786 2475H939V2535H712Z" fill="black" stroke="black"/>
<path d="M764 2611.5V2557H941V2611.5H764Z" fill="black"/>
<path d="M764 2611.5V2557H941V2611.5H764Z" fill="black"/>
<path d="M764 2611.5V2557H941V2611.5H764Z" fill="black"/>
<path d="M764 2611.5V2557H941V2611.5H764Z" fill="black"/>
<path d="M764 2611.5V2557H941V2611.5H764Z" stroke="black"/>
<path d="M764 2696.5V2642H941V2696.5H764Z" fill="black"/>
<path d="M764 2696.5V2642H941V2696.5H764Z" fill="black"/>
<path d="M764 2696.5V2642H941V2696.5H764Z" fill="black"/>
<path d="M764 2696.5V2642H941V2696.5H764Z" fill="black"/>
<path d="M764 2696.5V2642H941V2696.5H764Z" stroke="black"/>
<path d="M764 2781.5V2727H941V2781.5H764Z" fill="black"/>
<path d="M764 2781.5V2727H941V2781.5H764Z" fill="black"/>
<path d="M764 2781.5V2727H941V2781.5H764Z" fill="black"/>
<path d="M764 2781.5V2727H941V2781.5H764Z" fill="black"/>
<path d="M764 2781.5V2727H941V2781.5H764Z" stroke="black"/>
<path d="M764 2871.5V2817H941V2871.5H764Z" fill="black"/>
<path d="M764 2871.5V2817H941V2871.5H764Z" fill="black"/>
<path d="M764 2871.5V2817H941V2871.5H764Z" fill="black"/>
<path d="M764 2871.5V2817H941V2871.5H764Z" fill="black"/>
<path d="M764 2871.5V2817H941V2871.5H764Z" stroke="black"/>
<path d="M764 2970.5V2916H941V2970.5H764Z" fill="black"/>
<path d="M764 2970.5V2916H941V2970.5H764Z" fill="black"/>
<path d="M764 2970.5V2916H941V2970.5H764Z" fill="black"/>
<path d="M764 2970.5V2916H941V2970.5H764Z" fill="black"/>
<path d="M764 2970.5V2916H941V2970.5H764Z" stroke="black"/>
<path d="M707.5 2555L505 2550L594.5 2619H707.5V2555Z" fill="black" stroke="black"/>
<path d="M617 2665H505V2727H691L617 2665Z" fill="black" stroke="black"/>
<path d="M505 2817V2759.5V2756H702.5L715.5 2766.5H702.5V2817H505Z" fill="black" stroke="black"/>
<path d="M514 2966V2900H646L723.5 2970.5L711.5 2966H514Z" fill="black" stroke="black"/>
<path d="M303 2631.5L443 2509V2631.5H303Z" fill="black" stroke="black"/>
<path d="M297 2704V2648H468V2704H297Z" fill="black" stroke="black"/>
<path d="M456 2727L361 2815H456V2727Z" fill="black" stroke="black"/>
<path d="M285 2901.5L336.5 2844H459V2901.5H285Z" fill="black" stroke="black"/>
<path d="M297 2979.5V2925H468V2979.5H297Z" fill="black" stroke="black"/>
<path d="M141.455 171.182H151.545L175.273 229.136H176.091L199.818 171.182H209.909V241H202V187.955H201.318L179.5 241H171.864L150.045 187.955H149.364V241H141.455V171.182ZM233.815 229.136L259.043 188.636H268.315V241H260.27V200.5L235.179 241H225.77V188.636H233.815V229.136ZM304.324 258.864V171.182H312.369V258.864H304.324ZM304.324 242.091C300.778 242.091 297.551 241.455 294.642 240.182C291.733 238.886 289.233 237.057 287.142 234.693C285.051 232.307 283.438 229.455 282.301 226.136C281.165 222.818 280.597 219.136 280.597 215.091C280.597 211 281.165 207.295 282.301 203.977C283.438 200.636 285.051 197.773 287.142 195.386C289.233 193 291.733 191.17 294.642 189.898C297.551 188.602 300.778 187.955 304.324 187.955H306.778V242.091H304.324ZM304.324 234.864H305.688V195.182H304.324C301.642 195.182 299.313 195.727 297.335 196.818C295.358 197.886 293.722 199.352 292.426 201.216C291.153 203.057 290.199 205.17 289.562 207.557C288.949 209.943 288.642 212.455 288.642 215.091C288.642 218.591 289.199 221.841 290.312 224.841C291.426 227.841 293.142 230.261 295.46 232.102C297.778 233.943 300.733 234.864 304.324 234.864ZM312.369 242.091H309.915V187.955H312.369C315.915 187.955 319.142 188.602 322.051 189.898C324.96 191.17 327.46 193 329.551 195.386C331.642 197.773 333.256 200.636 334.392 203.977C335.528 207.295 336.097 211 336.097 215.091C336.097 219.136 335.528 222.818 334.392 226.136C333.256 229.455 331.642 232.307 329.551 234.693C327.46 237.057 324.96 238.886 322.051 240.182C319.142 241.455 315.915 242.091 312.369 242.091ZM312.369 234.864C315.074 234.864 317.403 234.341 319.358 233.295C321.335 232.227 322.96 230.773 324.233 228.932C325.528 227.068 326.483 224.955 327.097 222.591C327.733 220.205 328.051 217.705 328.051 215.091C328.051 211.591 327.494 208.33 326.381 205.307C325.267 202.284 323.551 199.841 321.233 197.977C318.915 196.114 315.96 195.182 312.369 195.182H311.006V234.864H312.369ZM356.44 229.136L381.668 188.636H390.94V241H382.895V200.5L357.804 241H348.395V188.636H356.44V229.136ZM446.04 188.636V241H437.994V188.636H446.04ZM442.903 213.591V221.091C441.085 221.773 439.278 222.375 437.483 222.898C435.688 223.398 433.801 223.795 431.824 224.091C429.847 224.364 427.676 224.5 425.312 224.5C419.381 224.5 414.619 222.898 411.028 219.693C407.46 216.489 405.676 211.682 405.676 205.273V188.5H413.722V205.273C413.722 207.955 414.233 210.159 415.256 211.886C416.278 213.614 417.665 214.898 419.415 215.739C421.165 216.58 423.131 217 425.312 217C428.722 217 431.801 216.693 434.551 216.08C437.324 215.443 440.108 214.614 442.903 213.591ZM482.756 242.091C477.71 242.091 473.358 240.977 469.699 238.75C466.062 236.5 463.256 233.364 461.278 229.341C459.324 225.295 458.347 220.591 458.347 215.227C458.347 209.864 459.324 205.136 461.278 201.045C463.256 196.932 466.006 193.727 469.528 191.432C473.074 189.114 477.21 187.955 481.938 187.955C484.665 187.955 487.358 188.409 490.017 189.318C492.676 190.227 495.097 191.705 497.278 193.75C499.46 195.773 501.199 198.455 502.494 201.795C503.79 205.136 504.438 209.25 504.438 214.136V217.545H464.074V210.591H496.256C496.256 207.636 495.665 205 494.483 202.682C493.324 200.364 491.665 198.534 489.506 197.193C487.369 195.852 484.847 195.182 481.938 195.182C478.733 195.182 475.96 195.977 473.619 197.568C471.301 199.136 469.517 201.182 468.267 203.705C467.017 206.227 466.392 208.932 466.392 211.818V216.455C466.392 220.409 467.074 223.761 468.438 226.511C469.824 229.239 471.744 231.318 474.199 232.75C476.653 234.159 479.506 234.864 482.756 234.864C484.869 234.864 486.778 234.568 488.483 233.977C490.21 233.364 491.699 232.455 492.949 231.25C494.199 230.023 495.165 228.5 495.847 226.682L503.619 228.864C502.801 231.5 501.426 233.818 499.494 235.818C497.563 237.795 495.176 239.341 492.335 240.455C489.494 241.545 486.301 242.091 482.756 242.091ZM537.949 242.091C533.04 242.091 528.813 240.932 525.267 238.614C521.722 236.295 518.994 233.102 517.085 229.034C515.176 224.966 514.222 220.318 514.222 215.091C514.222 209.773 515.199 205.08 517.153 201.011C519.131 196.92 521.881 193.727 525.403 191.432C528.949 189.114 533.085 187.955 537.812 187.955C541.494 187.955 544.812 188.636 547.767 190C550.722 191.364 553.142 193.273 555.028 195.727C556.915 198.182 558.085 201.045 558.54 204.318H550.494C549.881 201.932 548.517 199.818 546.403 197.977C544.313 196.114 541.494 195.182 537.949 195.182C534.813 195.182 532.063 196 529.699 197.636C527.358 199.25 525.528 201.534 524.21 204.489C522.915 207.42 522.267 210.864 522.267 214.818C522.267 218.864 522.903 222.386 524.176 225.386C525.472 228.386 527.29 230.716 529.631 232.375C531.994 234.034 534.767 234.864 537.949 234.864C540.04 234.864 541.938 234.5 543.642 233.773C545.347 233.045 546.79 232 547.972 230.636C549.153 229.273 549.994 227.636 550.494 225.727H558.54C558.085 228.818 556.96 231.602 555.165 234.08C553.392 236.534 551.04 238.489 548.108 239.943C545.199 241.375 541.813 242.091 537.949 242.091ZM570.301 241V188.636H578.347V211.409H583.665L602.483 188.636H612.847L591.71 213.864L613.119 241H602.756L585.574 218.909H578.347V241H570.301ZM629.909 229.136L655.136 188.636H664.409V241H656.364V200.5L631.273 241H621.864V188.636H629.909V229.136ZM687.19 229.136L712.418 188.636H721.69V241H713.645V200.5L688.554 241H679.145V188.636H687.19V229.136ZM707.099 171.182H714.599C714.599 174.864 713.327 177.875 710.781 180.216C708.236 182.557 704.781 183.727 700.418 183.727C696.122 183.727 692.702 182.557 690.156 180.216C687.634 177.875 686.372 174.864 686.372 171.182H693.872C693.872 172.955 694.361 174.511 695.338 175.852C696.338 177.193 698.031 177.864 700.418 177.864C702.804 177.864 704.509 177.193 705.531 175.852C706.577 174.511 707.099 172.955 707.099 171.182ZM760.153 227.636H768.744C768.926 230 769.994 231.795 771.949 233.023C773.926 234.25 776.494 234.864 779.653 234.864C782.881 234.864 785.642 234.205 787.938 232.886C790.233 231.545 791.381 229.386 791.381 226.409C791.381 224.659 790.949 223.136 790.085 221.841C789.222 220.523 788.006 219.5 786.438 218.773C784.869 218.045 783.017 217.682 780.881 217.682H771.881V210.455H780.881C784.085 210.455 786.449 209.727 787.972 208.273C789.517 206.818 790.29 205 790.29 202.818C790.29 200.477 789.46 198.602 787.801 197.193C786.142 195.761 783.79 195.045 780.744 195.045C777.676 195.045 775.119 195.739 773.074 197.125C771.028 198.489 769.949 200.25 769.835 202.409H761.381C761.472 199.591 762.335 197.102 763.972 194.943C765.608 192.761 767.835 191.057 770.653 189.83C773.472 188.58 776.699 187.955 780.335 187.955C784.017 187.955 787.21 188.602 789.915 189.898C792.642 191.17 794.744 192.909 796.222 195.114C797.722 197.295 798.472 199.773 798.472 202.545C798.472 205.5 797.642 207.886 795.983 209.705C794.324 211.523 792.244 212.818 789.744 213.591V214.136C791.722 214.273 793.438 214.909 794.892 216.045C796.369 217.159 797.517 218.625 798.335 220.443C799.153 222.239 799.562 224.227 799.562 226.409C799.562 229.591 798.71 232.364 797.006 234.727C795.301 237.068 792.96 238.886 789.983 240.182C787.006 241.455 783.608 242.091 779.79 242.091C776.085 242.091 772.767 241.489 769.835 240.284C766.903 239.057 764.574 237.364 762.847 235.205C761.142 233.023 760.244 230.5 760.153 227.636ZM832.136 242.091C827.409 242.091 823.261 240.966 819.693 238.716C816.148 236.466 813.375 233.318 811.375 229.273C809.398 225.227 808.409 220.5 808.409 215.091C808.409 209.636 809.398 204.875 811.375 200.807C813.375 196.739 816.148 193.58 819.693 191.33C823.261 189.08 827.409 187.955 832.136 187.955C836.864 187.955 841 189.08 844.545 191.33C848.114 193.58 850.886 196.739 852.864 200.807C854.864 204.875 855.864 209.636 855.864 215.091C855.864 220.5 854.864 225.227 852.864 229.273C850.886 233.318 848.114 236.466 844.545 238.716C841 240.966 836.864 242.091 832.136 242.091ZM832.136 234.864C835.727 234.864 838.682 233.943 841 232.102C843.318 230.261 845.034 227.841 846.148 224.841C847.261 221.841 847.818 218.591 847.818 215.091C847.818 211.591 847.261 208.33 846.148 205.307C845.034 202.284 843.318 199.841 841 197.977C838.682 196.114 835.727 195.182 832.136 195.182C828.545 195.182 825.591 196.114 823.273 197.977C820.955 199.841 819.239 202.284 818.125 205.307C817.011 208.33 816.455 211.591 816.455 215.091C816.455 218.591 817.011 221.841 818.125 224.841C819.239 227.841 820.955 230.261 823.273 232.102C825.591 233.943 828.545 234.864 832.136 234.864ZM889.418 242.091C884.69 242.091 880.543 240.966 876.974 238.716C873.429 236.466 870.656 233.318 868.656 229.273C866.679 225.227 865.69 220.5 865.69 215.091C865.69 209.636 866.679 204.875 868.656 200.807C870.656 196.739 873.429 193.58 876.974 191.33C880.543 189.08 884.69 187.955 889.418 187.955C894.145 187.955 898.281 189.08 901.827 191.33C905.395 193.58 908.168 196.739 910.145 200.807C912.145 204.875 913.145 209.636 913.145 215.091C913.145 220.5 912.145 225.227 910.145 229.273C908.168 233.318 905.395 236.466 901.827 238.716C898.281 240.966 894.145 242.091 889.418 242.091ZM889.418 234.864C893.009 234.864 895.963 233.943 898.281 232.102C900.599 230.261 902.315 227.841 903.429 224.841C904.543 221.841 905.099 218.591 905.099 215.091C905.099 211.591 904.543 208.33 903.429 205.307C902.315 202.284 900.599 199.841 898.281 197.977C895.963 196.114 893.009 195.182 889.418 195.182C885.827 195.182 882.872 196.114 880.554 197.977C878.236 199.841 876.52 202.284 875.406 205.307C874.293 208.33 873.736 211.591 873.736 215.091C873.736 218.591 874.293 221.841 875.406 224.841C876.52 227.841 878.236 230.261 880.554 232.102C882.872 233.943 885.827 234.864 889.418 234.864ZM925.426 241V188.636H966.608V241H958.562V196.136H933.472V241H925.426ZM996.71 242.227C993.392 242.227 990.381 241.602 987.676 240.352C984.972 239.08 982.824 237.25 981.233 234.864C979.642 232.455 978.847 229.545 978.847 226.136C978.847 223.136 979.438 220.705 980.619 218.841C981.801 216.955 983.381 215.477 985.358 214.409C987.335 213.341 989.517 212.545 991.903 212.023C994.313 211.477 996.733 211.045 999.165 210.727C1002.35 210.318 1004.93 210.011 1006.9 209.807C1008.9 209.58 1010.36 209.205 1011.27 208.682C1012.2 208.159 1012.66 207.25 1012.66 205.955V205.682C1012.66 202.318 1011.74 199.705 1009.9 197.841C1008.09 195.977 1005.32 195.045 1001.62 195.045C997.778 195.045 994.767 195.886 992.585 197.568C990.403 199.25 988.869 201.045 987.983 202.955L980.347 200.227C981.71 197.045 983.528 194.568 985.801 192.795C988.097 191 990.597 189.75 993.301 189.045C996.028 188.318 998.71 187.955 1001.35 187.955C1003.03 187.955 1004.96 188.159 1007.14 188.568C1009.35 188.955 1011.47 189.761 1013.52 190.989C1015.59 192.216 1017.3 194.068 1018.66 196.545C1020.03 199.023 1020.71 202.341 1020.71 206.5V241H1012.66V233.909H1012.26C1011.71 235.045 1010.8 236.261 1009.53 237.557C1008.26 238.852 1006.56 239.955 1004.45 240.864C1002.34 241.773 999.756 242.227 996.71 242.227ZM997.938 235C1001.12 235 1003.8 234.375 1005.98 233.125C1008.19 231.875 1009.85 230.261 1010.96 228.284C1012.1 226.307 1012.66 224.227 1012.66 222.045V214.682C1012.32 215.091 1011.57 215.466 1010.41 215.807C1009.28 216.125 1007.96 216.409 1006.46 216.659C1004.98 216.886 1003.54 217.091 1002.13 217.273C1000.74 217.432 999.619 217.568 998.756 217.682C996.665 217.955 994.71 218.398 992.892 219.011C991.097 219.602 989.642 220.5 988.528 221.705C987.438 222.886 986.892 224.5 986.892 226.545C986.892 229.341 987.926 231.455 989.994 232.886C992.085 234.295 994.733 235 997.938 235ZM1035.39 260.636V188.636H1043.17V196.955H1044.12C1044.71 196.045 1045.53 194.886 1046.58 193.477C1047.64 192.045 1049.17 190.773 1051.14 189.659C1053.14 188.523 1055.85 187.955 1059.26 187.955C1063.67 187.955 1067.55 189.057 1070.92 191.261C1074.28 193.466 1076.91 196.591 1078.79 200.636C1080.68 204.682 1081.62 209.455 1081.62 214.955C1081.62 220.5 1080.68 225.307 1078.79 229.375C1076.91 233.42 1074.29 236.557 1070.95 238.784C1067.61 240.989 1063.76 242.091 1059.39 242.091C1056.03 242.091 1053.34 241.534 1051.32 240.42C1049.29 239.284 1047.74 238 1046.64 236.568C1045.55 235.114 1044.71 233.909 1044.12 232.955H1043.44V260.636H1035.39ZM1043.3 214.818C1043.3 218.773 1043.88 222.261 1045.04 225.284C1046.2 228.284 1047.89 230.636 1050.12 232.341C1052.35 234.023 1055.08 234.864 1058.3 234.864C1061.67 234.864 1064.47 233.977 1066.72 232.205C1069 230.409 1070.7 228 1071.84 224.977C1073 221.932 1073.58 218.545 1073.58 214.818C1073.58 211.136 1073.01 207.818 1071.87 204.864C1070.76 201.886 1069.07 199.534 1066.79 197.807C1064.54 196.057 1061.71 195.182 1058.3 195.182C1055.03 195.182 1052.28 196.011 1050.05 197.67C1047.83 199.307 1046.14 201.602 1045.01 204.557C1043.87 207.489 1043.3 210.909 1043.3 214.818ZM1093.89 241V188.636H1101.94V211.409H1107.26L1126.08 188.636H1136.44L1115.3 213.864L1136.71 241H1126.35L1109.17 218.909H1101.94V241H1093.89Z" fill="black"/>
</svg>
